<svg xmlns="http://www.w3.org/2000/svg" xmlns:xlink="http://www.w3.org/1999/xlink" width="227.171" height="270.808" viewBox="0 0 227.171 270.808"><defs><filter id="a" x="3.585" y="8" width="222" height="224" filterUnits="userSpaceOnUse"><feOffset dy="3" input="SourceAlpha"/><feGaussianBlur stdDeviation="3" result="b"/><feFlood flood-opacity="0.161"/><feComposite operator="in" in2="b"/><feComposite in="SourceGraphic"/></filter><filter id="c" x="16.585" y="24" width="194" height="193" filterUnits="userSpaceOnUse"><feOffset dy="3" input="SourceAlpha"/><feGaussianBlur stdDeviation="3" result="d"/><feFlood flood-opacity="0.161"/><feComposite operator="in" in2="d"/><feComposite in="SourceGraphic"/></filter><filter id="e" x="33.585" y="38" width="163" height="164" filterUnits="userSpaceOnUse"><feOffset dy="3" input="SourceAlpha"/><feGaussianBlur stdDeviation="3" result="f"/><feFlood flood-opacity="0.161"/><feComposite operator="in" in2="f"/><feComposite in="SourceGraphic"/></filter><filter id="g" x="46.585" y="52" width="135" height="136" filterUnits="userSpaceOnUse"><feOffset dy="3" input="SourceAlpha"/><feGaussianBlur stdDeviation="3" result="h"/><feFlood flood-opacity="0.161"/><feComposite operator="in" in2="h"/><feComposite in="SourceGraphic"/></filter><filter id="i" x="4.585" y="7" width="222" height="224" filterUnits="userSpaceOnUse"><feOffset dy="3" input="SourceAlpha"/><feGaussianBlur stdDeviation="3" result="j"/><feFlood flood-opacity="0.161"/><feComposite operator="in" in2="j"/><feComposite in="SourceGraphic"/></filter><filter id="k" x="19.585" y="24" width="192" height="193" filterUnits="userSpaceOnUse"><feOffset dy="3" input="SourceAlpha"/><feGaussianBlur stdDeviation="3" result="l"/><feFlood flood-opacity="0.161"/><feComposite operator="in" in2="l"/><feComposite in="SourceGraphic"/></filter><filter id="m" x="33.585" y="38" width="163" height="164" filterUnits="userSpaceOnUse"><feOffset dy="3" input="SourceAlpha"/><feGaussianBlur stdDeviation="3" result="n"/><feFlood flood-opacity="0.161"/><feComposite operator="in" in2="n"/><feComposite in="SourceGraphic"/></filter><filter id="o" x="48.585" y="52" width="134" height="136" filterUnits="userSpaceOnUse"><feOffset dy="3" input="SourceAlpha"/><feGaussianBlur stdDeviation="3" result="p"/><feFlood flood-opacity="0.161"/><feComposite operator="in" in2="p"/><feComposite in="SourceGraphic"/></filter></defs><g transform="translate(-1236.415 -163.919)"><g transform="matrix(1, 0, 0, 1, 1236.42, 163.92)" filter="url(#a)"><ellipse cx="102" cy="103" rx="102" ry="103" transform="translate(12.58 14)" fill="#7d7d7d"/></g><g transform="matrix(1, 0, 0, 1, 1236.42, 163.92)" filter="url(#c)"><ellipse cx="88" cy="87.5" rx="88" ry="87.5" transform="translate(25.58 30)" fill="#999"/></g><g transform="matrix(1, 0, 0, 1, 1236.42, 163.92)" filter="url(#e)"><ellipse cx="72.5" cy="73" rx="72.5" ry="73" transform="translate(42.58 44)" fill="#b5b5b5"/></g><g transform="matrix(1, 0, 0, 1, 1236.42, 163.92)" filter="url(#g)"><ellipse cx="58.5" cy="59" rx="58.5" ry="59" transform="translate(55.58 58)" fill="#c6c6c6"/></g><ellipse cx="44.5" cy="43" rx="44.5" ry="43" transform="translate(1306 237.919)" fill="#d4d4d4"/><ellipse cx="113.585" cy="116" rx="113.585" ry="116" transform="translate(1463.586 395.919) rotate(180)" fill="#566849"/><g transform="matrix(1, 0, 0, 1, 1236.42, 163.92)" filter="url(#i)"><ellipse cx="102" cy="103" rx="102" ry="103" transform="translate(217.58 219) rotate(180)" fill="#7b9667"/></g><g transform="matrix(1, 0, 0, 1, 1236.42, 163.92)" filter="url(#k)"><ellipse cx="87" cy="87.5" rx="87" ry="87.5" transform="translate(202.58 205) rotate(180)" fill="#9abc80"/></g><g transform="matrix(1, 0, 0, 1, 1236.42, 163.92)" filter="url(#m)"><ellipse cx="72.5" cy="73" rx="72.5" ry="73" transform="translate(187.58 190) rotate(180)" fill="#b8e09a"/></g><g transform="matrix(1, 0, 0, 1, 1236.42, 163.92)" filter="url(#o)"><ellipse cx="58" cy="59" rx="58" ry="59" transform="translate(173.58 176) rotate(180)" fill="#d8fdbc"/></g><rect width="141.552" height="3.411" transform="translate(1354.412 293.175) rotate(90)" fill="#fff"/><rect width="141.552" height="3.411" transform="translate(1364.412 293.175) rotate(90)" fill="#fff"/><rect width="141.552" height="3.411" transform="translate(1344.412 293.175) rotate(90)" fill="#fff"/><rect width="141.552" height="3.411" transform="translate(1374.412 293.175) rotate(90)" fill="#fff"/><rect width="141.552" height="3.411" transform="translate(1334.412 293.175) rotate(90)" fill="#fff"/><g transform="translate(1313.583 251.524)"><path d="M0,0H78.835V56.791H0Z" fill="none"/><path d="M63.56,23.266A24.429,24.429,0,0,0,39.417,4,24.718,24.718,0,0,0,17.574,16.886,19.336,19.336,0,0,0,0,35.9C0,46.454,8.836,55.035,19.709,55.035h42.7A16.2,16.2,0,0,0,78.835,39.086,16.076,16.076,0,0,0,63.56,23.266Z" transform="translate(0 -1.122)" fill="#fff"/></g></g></svg>