<svg xmlns="http://www.w3.org/2000/svg" xmlns:xlink="http://www.w3.org/1999/xlink" width="886.586" height="250.001" viewBox="0 0 886.586 250.001"><defs><filter id="a" x="0" y="0" width="886.586" height="250.001" filterUnits="userSpaceOnUse"><feOffset dy="3" input="SourceAlpha"/><feGaussianBlur stdDeviation="3" result="b"/><feFlood flood-opacity="0.161"/><feComposite operator="in" in2="b"/><feComposite in="SourceGraphic"/></filter><filter id="c" x="25.585" y="30.001" width="194" height="193" filterUnits="userSpaceOnUse"><feOffset dy="3" input="SourceAlpha"/><feGaussianBlur stdDeviation="3" result="d"/><feFlood flood-opacity="0.161"/><feComposite operator="in" in2="d"/><feComposite in="SourceGraphic"/></filter><filter id="e" x="42.585" y="44.001" width="163" height="164" filterUnits="userSpaceOnUse"><feOffset dy="3" input="SourceAlpha"/><feGaussianBlur stdDeviation="3" result="f"/><feFlood flood-opacity="0.161"/><feComposite operator="in" in2="f"/><feComposite in="SourceGraphic"/></filter><filter id="g" x="55.585" y="58.001" width="135" height="136" filterUnits="userSpaceOnUse"><feOffset dy="3" input="SourceAlpha"/><feGaussianBlur stdDeviation="3" result="h"/><feFlood flood-opacity="0.161"/><feComposite operator="in" in2="h"/><feComposite in="SourceGraphic"/></filter><filter id="i" x="13.585" y="13.001" width="222" height="224" filterUnits="userSpaceOnUse"><feOffset dy="3" input="SourceAlpha"/><feGaussianBlur stdDeviation="3" result="j"/><feFlood flood-opacity="0.161"/><feComposite operator="in" in2="j"/><feComposite in="SourceGraphic"/></filter><filter id="k" x="28.585" y="30.001" width="192" height="193" filterUnits="userSpaceOnUse"><feOffset dy="3" input="SourceAlpha"/><feGaussianBlur stdDeviation="3" result="l"/><feFlood flood-opacity="0.161"/><feComposite operator="in" in2="l"/><feComposite in="SourceGraphic"/></filter><filter id="m" x="42.585" y="44.001" width="163" height="164" filterUnits="userSpaceOnUse"><feOffset dy="3" input="SourceAlpha"/><feGaussianBlur stdDeviation="3" result="n"/><feFlood flood-opacity="0.161"/><feComposite operator="in" in2="n"/><feComposite in="SourceGraphic"/></filter><filter id="o" x="57.585" y="58.001" width="134" height="136" filterUnits="userSpaceOnUse"><feOffset dy="3" input="SourceAlpha"/><feGaussianBlur stdDeviation="3" result="p"/><feFlood flood-opacity="0.161"/><feComposite operator="in" in2="p"/><feComposite in="SourceGraphic"/></filter></defs><g transform="translate(-1243.415 -170.918)"><g transform="translate(16 13)"><g transform="matrix(1, 0, 0, 1, 1227.42, 157.92)" filter="url(#a)"><path d="M-9226,103c0-64.063,50.854-116,113.585-116A111.813,111.813,0,0,1-9037.14,16.13q1.605-.058,3.225-.058h589a87.5,87.5,0,0,1,87.5,87.5,87.5,87.5,0,0,1-87.5,87.5h-589q-2.24,0-4.449-.111A111.772,111.772,0,0,1-9112.415,219C-9175.146,219-9226,167.065-9226,103Z" transform="translate(9235 19)" fill="#566849"/></g><text transform="translate(1492 326.491)" fill="#fff" font-size="127" font-family="Cambria-Bold, Cambria" font-weight="700" letter-spacing="0.05em"><tspan x="0" y="0">IOT</tspan></text><text transform="translate(1722.588 326.491)" fill="#d8fdbc" font-size="127" font-family="Cambria" letter-spacing="0.05em"><tspan x="0" y="0">matic</tspan></text><g transform="matrix(1, 0, 0, 1, 1227.42, 157.92)" filter="url(#c)"><ellipse cx="88" cy="87.5" rx="88" ry="87.5" transform="translate(34.58 36)" fill="#999"/></g><g transform="matrix(1, 0, 0, 1, 1227.42, 157.92)" filter="url(#e)"><ellipse cx="72.5" cy="73" rx="72.5" ry="73" transform="translate(51.58 50)" fill="#b5b5b5"/></g><g transform="matrix(1, 0, 0, 1, 1227.42, 157.92)" filter="url(#g)"><ellipse cx="58.5" cy="59" rx="58.5" ry="59" transform="translate(64.58 64)" fill="#c6c6c6"/></g><ellipse cx="44.5" cy="43" rx="44.5" ry="43" transform="translate(1306 237.919)" fill="#d4d4d4"/><g transform="matrix(1, 0, 0, 1, 1227.42, 157.92)" filter="url(#i)"><ellipse cx="102" cy="103" rx="102" ry="103" transform="translate(226.58 225) rotate(180)" fill="#7b9667"/></g><g transform="matrix(1, 0, 0, 1, 1227.42, 157.92)" filter="url(#k)"><ellipse cx="87" cy="87.5" rx="87" ry="87.5" transform="translate(211.58 211) rotate(180)" fill="#9abc80"/></g><g transform="matrix(1, 0, 0, 1, 1227.42, 157.92)" filter="url(#m)"><ellipse cx="72.5" cy="73" rx="72.5" ry="73" transform="translate(196.58 196) rotate(180)" fill="#b8e09a"/></g><g transform="matrix(1, 0, 0, 1, 1227.42, 157.92)" filter="url(#o)"><ellipse cx="58" cy="59" rx="58" ry="59" transform="translate(182.58 182) rotate(180)" fill="#d8fdbc"/></g><path d="M-9095,231.919V129.175h3.411v102.74l-.118,0Zm-10-.275V129.175h3.409V231.863C-9102.729,231.807-9103.868,231.734-9105,231.644Zm20-102.469h3.412V231.082c-1.13.145-2.272.274-3.412.385ZM-9115,230.4V129.175h3.412v101.75C-9112.732,230.766-9113.866,230.59-9115,230.4Zm40-101.221h3.411V229.334c-1.133.251-2.267.485-3.411.7Z" transform="translate(10446 164)" fill="#fff"/><g transform="translate(1313.583 251.524)"><path d="M0,0H78.835V56.791H0Z" fill="none"/><path d="M63.56,23.266A24.429,24.429,0,0,0,39.417,4,24.718,24.718,0,0,0,17.574,16.886,19.336,19.336,0,0,0,0,35.9C0,46.454,8.836,55.035,19.709,55.035h42.7A16.2,16.2,0,0,0,78.835,39.086,16.076,16.076,0,0,0,63.56,23.266Z" transform="translate(0 -1.122)" fill="#fff"/></g></g></g></svg>