<svg xmlns="http://www.w3.org/2000/svg" width="865.002" height="249.999" viewBox="0 0 865.002 249.999"><g transform="translate(-239.999 -2650)"><path d="M-9210,125A125,125,0,0,1-9085,0a124.441,124.441,0,0,1,75.013,25H-8395a50,50,0,0,1,50,50V225h-664.988A124.442,124.442,0,0,1-9085,250,125,125,0,0,1-9210,125Z" transform="translate(9450 2650)" fill="#566849"/><circle cx="110" cy="110" r="110" transform="translate(255 2665)" fill="#7b9667"/><circle cx="95" cy="95" r="95" transform="translate(270 2680)" fill="#9abc80"/><circle cx="80" cy="80" r="80" transform="translate(285 2695)" fill="#b8e09a"/><ellipse cx="58" cy="59" rx="58" ry="59" transform="translate(423 2834) rotate(180)" fill="#d8fdbc"/><path d="M-9090,249.9v-106.3h10V249.9c-1.657.065-3.327.1-5,.1S-9088.343,249.966-9090,249.9Z" transform="translate(9450 2650)" fill="#fff"/><g transform="translate(325.583 2746.604)"><path d="M0,0H78.835V56.791H0Z" fill="none"/><path d="M63.56,23.266A24.429,24.429,0,0,0,39.417,4,24.718,24.718,0,0,0,17.574,16.886,19.336,19.336,0,0,0,0,35.9C0,46.454,8.836,55.035,19.709,55.035h42.7A16.2,16.2,0,0,0,78.835,39.086,16.076,16.076,0,0,0,63.56,23.266Z" transform="translate(0 -1.122)" fill="#fff"/></g><g transform="translate(12)"><text transform="translate(497 2819)" fill="#fff" font-size="127" font-family="Cambria-Bold, Cambria" font-weight="700" letter-spacing="0.05em"><tspan x="0" y="0">IoT</tspan></text><text transform="translate(718 2819)" fill="#d8fdbc" font-size="127" font-family="Cambria" letter-spacing="0.05em"><tspan x="0" y="0">matic</tspan></text></g></g></svg>